PathFileType	4	(X/Y/Z)	D:/ViconDB/Teaching_2017/Workshops/171025_A1_Demo01/Demo/171025_Guy_ROM_body_01.trc
DataRate	CameraRate	NumFrames	NumMarkers	Units	OrigDataRate	OrigDataStartFrame	OrigNumFrames
120.000000	120.000000	5	130	mm	120.000000	76	120
Frame#	Time	System			Vantage_5_2106396			Vantage_5_2106443			Vantage_5_2106435			Vantage_5_2106735			Vantage_5_2106428			Vantage_5_2106437			Vantage_5_2106434			Vantage_5_2106460			Vantage_5_2106228			Vantage_5_2106436			Vantage_5_2106467			Unlabeled_Markers			Labeling			Hips			Spine			Head			Head_End			LeftShoulder			LeftArm			LeftForeArm			LeftHand			LeftHandThumbEnd			LeftHandEnd			RightShoulder			RightArm			RightForeArm			RightHand			RightHandThumbEnd			RightHandEnd			LeftUpLeg			LeftLeg			LeftFoot			LeftToeBase			LeftToeEnd			RightUpLeg			RightLeg			RightFoot			RightToeBase			RightToeEnd			ARIEL			LFHD			RFHD			LBHD			RBHD			C7			T10			CLAV			STRN			LBSH			LFSH			LUPA			LELB			LIEL			LWRE			LOWR			LIWR			LOHAND			LIHAND			RBSH			RFSH			RUPA			RELB			RIEL			RWRE			ROWR			RIWR			ROHAND			RIHAND			LFWT			LMWT			LBWT			LHIP			LKNE			LKNI			LSHN			LANK			LHEL			LMT5			LMT1			LTOE			RFWT			RMWT			RBWT			RHIP			RKNE			RKNI			RSHN			RANK			RHEL			RMT5			RMT1			RTOE			Solving			Hips			Spine			Spine1			Spine2			Spine3			Neck			Head			HeadEnd			RightShoulder			RightArm			RightForeArm			RightForeArmRoll			RightHand			RightHandEnd			R_FingersEnd			RightHandThumb1			RightHandThumb2			LeftShoulder			LeftArm			LeftForeArm			LeftForeArmRoll			LeftHand			LeftHandEnd			L_FingersEnd			LeftHandThumb1			LeftHandThumb2			RightUpLeg			RightLeg			RightFoot			RightToeBase			RightToeBaseEnd			LeftUpLeg			LeftLeg			LeftFoot			LeftToeBase			LeftToeBaseEnd			
		X0	Y0	Z0	X1	Y1	Z1	X2	Y2	Z2	X3	Y3	Z3	X4	Y4	Z4	X5	Y5	Z5	X6	Y6	Z6	X7	Y7	Z7	X8	Y8	Z8	X9	Y9	Z9	X10	Y10	Z10	X11	Y11	Z11	X12	Y12	Z12	X13	Y13	Z13	X14	Y14	Z14	X15	Y15	Z15	X16	Y16	Z16	X17	Y17	Z17	X18	Y18	Z18	X19	Y19	Z19	X20	Y20	Z20	X21	Y21	Z21	X22	Y22	Z22	X23	Y23	Z23	X24	Y24	Z24	X25	Y25	Z25	X26	Y26	Z26	X27	Y27	Z27	X28	Y28	Z28	X29	Y29	Z29	X30	Y30	Z30	X31	Y31	Z31	X32	Y32	Z32	X33	Y33	Z33	X34	Y34	Z34	X35	Y35	Z35	X36	Y36	Z36	X37	Y37	Z37	X38	Y38	Z38	X39	Y39	Z39	X40	Y40	Z40	X41	Y41	Z41	X42	Y42	Z42	X43	Y43	Z43	X44	Y44	Z44	X45	Y45	Z45	X46	Y46	Z46	X47	Y47	Z47	X48	Y48	Z48	X49	Y49	Z49	X50	Y50	Z50	X51	Y51	Z51	X52	Y52	Z52	X53	Y53	Z53	X54	Y54	Z54	X55	Y55	Z55	X56	Y56	Z56	X57	Y57	Z57	X58	Y58	Z58	X59	Y59	Z59	X60	Y60	Z60	X61	Y61	Z61	X62	Y62	Z62	X63	Y63	Z63	X64	Y64	Z64	X65	Y65	Z65	X66	Y66	Z66	X67	Y67	Z67	X68	Y68	Z68	X69	Y69	Z69	X70	Y70	Z70	X71	Y71	Z71	X72	Y72	Z72	X73	Y73	Z73	X74	Y74	Z74	X75	Y75	Z75	X76	Y76	Z76	X77	Y77	Z77	X78	Y78	Z78	X79	Y79	Z79	X80	Y80	Z80	X81	Y81	Z81	X82	Y82	Z82	X83	Y83	Z83	X84	Y84	Z84	X85	Y85	Z85	X86	Y86	Z86	X87	Y87	Z87	X88	Y88	Z88	X89	Y89	Z89	X90	Y90	Z90	X91	Y91	Z91	X92	Y92	Z92	X93	Y93	Z93	X94	Y94	Z94	X95	Y95	Z95	X96	Y96	Z96	X97	Y97	Z97	X98	Y98	Z98	X99	Y99	Z99	X100	Y100	Z100	X101	Y101	Z101	X102	Y102	Z102	X103	Y103	Z103	X104	Y104	Z104	X105	Y105	Z105	X106	Y106	Z106	X107	Y107	Z107	X108	Y108	Z108	X109	Y109	Z109	X110	Y110	Z110	X111	Y111	Z111	X112	Y112	Z112	X113	Y113	Z113	X114	Y114	Z114	X115	Y115	Z115	X116	Y116	Z116	X117	Y117	Z117	X118	Y118	Z118	X119	Y119	Z119	X120	Y120	Z120	X121	Y121	Z121	X122	Y122	Z122	X123	Y123	Z123	X124	Y124	Z124	X125	Y125	Z125	X126	Y126	Z126	X127	Y127	Z127	X128	Y128	Z128	X129	Y129	Z129	
76	0.633333																																											-6.140954	971.222290	-13.408118																																																																												-35.354355	1843.404419	-14.250532	25.931549	1794.120850	76.626343	-101.414330	1788.866821	57.368710	65.820908	1734.727905	-40.485004	-90.389320	1717.263550	-72.538933	-7.050346	1553.775391	-98.706024	-0.792391	1375.336670	-128.695892	-10.198560	1484.003906	76.491112	-3.445362	1347.464478	118.831749	142.935181	1501.753784	-110.355705	127.256790	1506.899780	29.435608	238.190887	1356.453369	-32.499168	263.417175	1168.649902	-7.573165	237.593048	1221.629272	-66.746696	260.981018	1054.897339	53.427242	263.829834	926.917603	36.777184	210.071014	933.567810	101.725540	276.564758	872.435364	94.350014	257.207458	887.873169	120.541832	-169.217819	1501.478516	-107.729980	-156.238419	1508.719238	10.115232	-257.376251	1361.882202	-49.535328	-291.894226	1167.105713	-50.986790	-238.604019	1207.635498	-105.262764	-300.255463	1047.835693	-11.153073	-283.084290	919.299805	-10.389671	-257.078003	944.662354	63.658138	-303.734253	865.440491	45.228436	-292.981781	871.704773	84.765724	118.753914	1090.011475	89.607605	185.037918	981.751587	-19.809803	118.085159	1171.964844	-95.971619	183.359512	662.738159	-15.901412	175.573944	549.475098	-13.459111	114.167122	630.020935	50.382557	196.183670	332.897552	-93.356873	179.478714	124.522629	-134.940399	129.229477	68.390648	-191.254532	208.096466	79.414726	42.542774	126.871758	85.669083	51.726196	163.548248	83.553734	96.337830	-140.911423	1093.260254	90.485573	-201.936722	1011.888611	-60.550892	-116.984375	1157.840698	-111.965881	-136.053696	753.163513	67.062515	-185.435867	565.966919	-20.280775	-160.686630	650.541504	42.918350	-198.583130	413.100830	-92.973946	-178.977417	127.436134	-146.436783	-116.872330	75.856689	-194.330658	-204.390854	76.934158	27.138603	-124.373772	76.113281	42.896049	-178.358078	79.235565	82.864265				-6.097088	970.856140	-20.554262																																																																																																																																				
77	0.641667																																											-6.201123	971.220703	-13.433544																																																																												-35.374577	1843.408691	-14.168789	25.858822	1794.055054	76.680084	-101.437721	1788.877808	57.450809	65.813400	1734.706299	-40.484634	-90.410385	1717.293335	-72.501961	-7.053907	1553.795288	-98.687973	-0.800871	1375.368408	-128.699890	-10.187278	1484.024658	76.511803	-3.463256	1347.474243	118.822716	142.920563	1501.745361	-110.351364	126.849113	1506.460449	29.203964	238.184235	1356.434814	-32.495529	263.410858	1168.622681	-7.659350	237.596191	1221.649048	-66.780769	260.970459	1054.828979	53.287170	263.865082	926.875610	36.623928	211.605209	934.992676	102.810753	276.591370	872.346008	94.137825	257.845703	888.395813	120.725449	-169.201416	1501.488770	-107.756363	-156.210266	1508.735840	10.130783	-257.490784	1361.759644	-49.648659	-291.878571	1167.129761	-51.060150	-238.555664	1207.640747	-105.306160	-300.229431	1047.869385	-11.223825	-283.053131	919.315674	-10.507696	-257.084869	944.656128	63.587105	-303.744080	865.474670	45.132805	-292.991730	871.747864	84.709846	118.722733	1089.997803	89.567940	184.996567	981.711975	-19.875111	118.075096	1171.966431	-96.024467	183.325851	662.714966	-15.949348	175.568634	549.456360	-13.496106	114.147316	629.998535	50.332939	196.163651	332.853302	-93.375656	179.456177	124.475212	-134.946030	129.272644	68.389030	-191.265030	208.095215	79.398323	42.536739	126.898933	85.671242	51.716869	163.607269	83.599297	96.339386	-140.919586	1093.292847	90.475174	-201.943481	1011.922607	-60.576721	-116.987656	1157.844360	-111.964180	-136.067780	753.202332	67.049263	-185.475266	566.011292	-20.298620	-160.658661	650.588928	42.916920	-198.596115	413.152008	-93.015945	-178.937012	127.436554	-146.475693	-116.882774	75.831810	-194.281708	-204.359711	76.952927	27.147682	-124.371445	76.131531	42.920116	-178.333145	79.256088	82.882210				-6.133680	970.857300	-20.577030																																																																																																																																				
78	0.650000																																											-6.210915	971.225769	-13.459826																																																																												-35.420830	1843.429199	-14.093327	25.828962	1794.036621	76.736847	-101.445747	1788.844482	57.498203	65.686287	1734.726440	-40.429230	-90.456779	1717.333618	-72.473930	-7.061848	1553.825439	-98.690895	-0.809219	1375.429321	-128.663269	-10.237400	1484.038574	76.499603	-3.523899	1347.440552	118.750534	142.916992	1501.790771	-110.334251	126.709763	1506.409546	29.140013	238.146637	1356.438965	-32.534939	263.383728	1168.630615	-7.746730	237.569061	1221.687134	-66.805443	260.998047	1054.822144	53.155781	263.810730	926.841919	36.435852	211.897659	935.162109	102.868202	276.629211	872.330750	93.950134	257.237122	887.721252	120.157074	-169.233261	1501.539429	-107.744316	-156.218674	1508.744995	10.133400	-257.309509	1362.042358	-49.536034	-291.908630	1167.168823	-51.125824	-238.581100	1207.673706	-105.377388	-300.253296	1047.881104	-11.319087	-283.087738	919.311096	-10.599349	-257.090912	944.630859	63.478481	-303.125610	865.361694	45.475262	-293.015228	871.710999	84.580109	118.701241	1089.991211	89.523476	184.933838	981.710999	-19.944414	118.099899	1172.017334	-96.030685	183.310196	662.734253	-15.974422	175.572586	549.463379	-13.511329	114.102951	629.994141	50.257545	196.156403	332.871643	-93.414955	179.472290	124.468628	-134.939590	129.244736	68.428116	-191.250427	208.104355	79.385658	42.539848	126.886154	85.652252	51.735806	163.613602	83.616913	96.354431	-140.922165	1093.288574	90.449753	-201.980835	1011.964722	-60.577671	-117.020699	1157.901733	-111.949409	-136.045380	753.250671	67.011314	-185.527542	566.030884	-20.348791	-160.667725	650.600525	42.868679	-198.620499	413.175018	-93.053482	-178.985489	127.506561	-146.459808	-116.846489	75.858566	-194.259003	-204.354935	76.963646	27.159044	-124.329254	76.138947	42.968826	-178.291809	79.281921	82.923782				-6.142739	970.887085	-20.637711																																																																																																																																				
79	0.658333																																											-6.262956	971.261719	-13.557416																																																																												-35.524384	1843.434937	-14.056084	25.750410	1794.053955	76.776817	-101.492172	1788.804443	57.529922	65.654991	1734.798218	-40.389011	-90.556473	1717.366699	-72.476036	-7.165347	1553.864868	-98.709877	-0.871658	1375.515625	-128.700211	-10.333147	1484.016846	76.446930	-3.640521	1347.371704	118.679398	142.859604	1501.836182	-110.335419	126.693535	1506.442627	29.128523	238.128098	1356.488159	-32.543755	263.324982	1168.687744	-7.820936	237.518494	1221.744507	-66.844612	260.975800	1054.862183	53.063004	263.803833	926.895203	36.286785	210.516983	933.686768	101.639771	276.625916	872.381409	93.797371	257.206390	887.677673	119.985260	-169.315720	1501.550537	-107.790489	-156.292801	1508.686523	10.058315	-257.345520	1362.035278	-49.594326	-291.953125	1167.122070	-51.201450	-238.641022	1207.734619	-105.411102	-300.324585	1047.854370	-11.416227	-283.151215	919.283386	-10.704142	-257.155823	944.530762	63.340034	-303.096649	865.303955	45.406754	-293.068756	871.631531	84.471916	118.698853	1089.992432	89.497971	184.902863	981.809937	-19.994570	118.002785	1172.080933	-96.088036	183.310547	662.802063	-16.026337	175.518585	549.545288	-13.563293	114.062469	630.003540	50.224758	196.144211	332.933258	-93.439590	179.475540	124.540756	-134.920654	129.168228	68.418221	-191.229065	208.030899	79.396271	42.532963	126.846100	85.656067	51.728062	163.570511	83.623650	96.352913	-140.947617	1093.214355	90.416519	-202.044418	1011.981812	-60.572857	-117.063210	1158.083374	-112.241325	-136.095352	753.233948	66.955902	-185.584137	565.989807	-20.408831	-160.731964	650.537598	42.787735	-198.664612	413.128174	-93.048157	-179.032166	127.473938	-146.438507	-116.915665	75.848000	-194.257919	-204.391388	76.928665	27.150709	-124.347832	76.097328	42.938007	-178.332718	79.236610	82.931717				-6.171591	970.895081	-20.807066																																																																																																																																				
80	0.666667																																											-6.301775	971.285095	-13.598197																																																																												-35.605701	1843.422363	-14.012613	25.693972	1794.091431	76.850250	-101.627693	1788.734619	57.516842	65.673836	1734.869141	-40.415325	-90.675789	1717.331787	-72.448380	-7.260925	1553.845825	-98.731544	-0.913942	1375.551147	-128.755676	-10.042907	1484.319946	76.575600	-3.454993	1347.539307	118.835487	142.819168	1501.887085	-110.350128	126.651955	1506.477417	29.127008	238.092758	1356.576416	-32.566219	263.284271	1168.759521	-7.908919	237.475098	1221.796387	-66.912994	260.931152	1054.894653	52.930775	263.795624	926.930908	36.127666	211.502960	934.752075	102.199211	276.657166	872.438354	93.624374	257.171753	887.636475	119.810318	-169.273209	1501.727661	-107.837959	-156.387405	1508.609985	9.978795	-257.618988	1361.693237	-49.811901	-292.023865	1167.064575	-51.230675	-238.702332	1207.747314	-105.471001	-300.383972	1047.761597	-11.566702	-283.219727	919.214233	-10.756276	-257.246307	944.450562	63.191124	-303.828156	865.406982	44.876648	-293.123779	871.531006	84.323349	118.681351	1090.017212	89.468597	184.864960	981.910828	-20.041437	117.959061	1172.115356	-96.152885	183.305328	662.876892	-16.042784	175.514679	549.617615	-13.603272	114.026718	630.007996	50.166294	196.141281	333.025085	-93.486702	179.464050	124.582611	-134.928879	129.085388	68.371613	-191.227707	207.986740	79.380180	42.543091	126.797119	85.656166	51.706654	163.533585	83.639236	96.364082	-141.007980	1093.115723	90.328827	-202.133774	1011.984009	-60.604729	-117.131264	1158.136353	-112.323235	-136.155319	753.192810	66.877373	-185.666946	565.913086	-20.469620	-160.836838	650.446472	42.720863	-198.757309	413.090118	-93.070671	-179.151566	127.412895	-146.394028	-116.974411	75.798317	-194.231628	-204.416077	76.886002	27.148317	-124.456490	76.043213	42.922085	-178.405136	79.205978	82.904610				-6.188539	970.875366	-20.928228																																																																																																																																				
